<svg width="391.5" height="79.544" version="1.1" viewBox="0 0 391.5 79.544" xmlns="http://www.w3.org/2000/svg">
 <g transform="matrix(1.3333 0 0 -1.3333 -268.3 361.65)">
  <g transform="scale(.1)">
   <path d="m2979.9 2255.4c-0.5302-1-1.28-1.5-2.28-1.5-0.76 0-1.73 0.55-2.93 1.62-1.21 1.09-2.83 2.27-4.88 3.59-2.04 1.32-4.61 2.52-7.67 3.63-3.08 1.1-6.87 1.66-11.37 1.66s-8.47-0.63-11.9-1.93c-3.41-1.27-6.28-3.02-8.6-5.23-2.31-2.22-4.06-4.79-5.26-7.7-1.2-2.93-1.8-6-1.8-9.2 0-4.19 0.89-7.66 2.67-10.41 1.78-2.73 4.13-5.07 7.06-7 2.92-1.91 6.23-3.55 9.94-4.85 3.71-1.31 7.52-2.61 11.43-3.9 3.91-1.28 7.73-2.69 11.43-4.23 3.71-1.55 7.03-3.5 9.95-5.82 2.92-2.34 5.26-5.21 7.05-8.62 1.78-3.42 2.68-7.65 2.68-12.74 0-5.19-0.89-10.07-2.68-14.66-1.78-4.57-4.35-8.55-7.73-11.93-3.39-3.39-7.53-6.05-12.43-8-4.9-1.96-10.5-2.94-16.8-2.94-8.17 0-15.2 1.44-21.09 4.32-5.88 2.91-11.05 6.86-15.48 11.87l2.45 3.84c0.6998 0.88 1.51 1.31 2.45 1.31 0.5303 0 1.2-0.34 2.01-1.04 0.82-0.71 1.82-1.57 2.98-2.59 1.17-1.02 2.57-2.12 4.21-3.32 1.63-1.2 3.53-2.3 5.69-3.32s4.64-1.88 7.45-2.59c2.81-0.7 5.99-1.04 9.55-1.04 4.91 0 9.29 0.75 13.14 2.22 3.86 1.5 7.12 3.53 9.77 6.09 2.66 2.57 4.69 5.62 6.09 9.14 1.4 3.54 2.11 7.3 2.11 11.34 0 4.36-0.9 7.96-2.68 10.8-1.79 2.82-4.13 5.18-7.05 7.09-2.92 1.88-6.24 3.47-9.95 4.77-3.71 1.27-7.52 2.52-11.43 3.75s-7.73 2.59-11.43 4.11c-3.71 1.53-7.03 3.46-9.95 5.82-2.92 2.37-5.28 5.3-7.05 8.84-1.78 3.53-2.67 7.94-2.67 13.25 0 4.14 0.78 8.14 2.36 12 1.58 3.84 3.88 7.25 6.92 10.18 3.04 2.94 6.79 5.32 11.26 7.1 4.47 1.77 9.57 2.66 15.29 2.66 6.43 0 12.19-1.03 17.3-3.07 5.11-2.03 9.77-5.16 13.97-9.35"/>
   <path d="m3039.2 2191.6h55.47l-25.28 62.56c-0.4103 0.99-0.81 2.11-1.23 3.37-0.4103 1.25-0.82 2.58-1.23 3.98-0.3998-1.4-0.81-2.73-1.22-3.98-0.4102-1.26-0.82-2.41-1.22-3.46zm82.86-44.97h-6.91c-0.82 0-1.49 0.22-2.01 0.65-0.5302 0.4401-0.94 1.01-1.23 1.71l-14.61 35.96h-60.81l-14.53-35.96c-0.2303-0.6399-0.63-1.19-1.22-1.66-0.5797-0.47-1.28-0.6999-2.1-0.6999h-6.82l50.66 123.8h8.92"/>
   <path d="m3168.1 2154.2h58.71v-7.61h-67.64v123.8h8.93"/>
   <path d="m3360.3 2208.5c0 8.63-1.21 16.39-3.59 23.27-2.4 6.89-5.77 12.72-10.12 17.5-4.34 4.79-9.57 8.44-15.69 10.98-6.13 2.54-12.92 3.81-20.4 3.81-7.34 0-14.07-1.27-20.16-3.81s-11.35-6.19-15.75-10.98c-4.41-4.78-7.82-10.61-10.24-17.5-2.42-6.88-3.63-14.64-3.63-23.27 0-8.69 1.21-16.46 3.63-23.32 2.42-6.85 5.83-12.67 10.24-17.45 4.4-4.78 9.66-8.43 15.75-10.94 6.09-2.5 12.82-3.76 20.16-3.76 7.48 0 14.27 1.26 20.4 3.76 6.12 2.51 11.35 6.16 15.69 10.94 4.35 4.78 7.72 10.6 10.12 17.45 2.38 6.86 3.59 14.63 3.59 23.32m9.27 0c0-9.57-1.44-18.24-4.29-26.03-2.86-7.78-6.88-14.43-12.08-19.95-5.19-5.51-11.4-9.77-18.63-12.77-7.24-3-15.26-4.51-24.07-4.51-8.69 0-16.65 1.51-23.88 4.51s-13.44 7.26-18.63 12.77c-5.19 5.52-9.23 12.17-12.12 19.95-2.88 7.79-4.32 16.46-4.32 26.03 0 9.51 1.44 18.15 4.32 25.94 2.89 7.79 6.93 14.44 12.12 19.95s11.4 9.78 18.63 12.82c7.23 3.03 15.19 4.55 23.88 4.55 8.81 0 16.83-1.51 24.07-4.51 7.23-3 13.44-7.28 18.63-12.82 5.2-5.54 9.22-12.2 12.08-19.99 2.85-7.79 4.29-16.43 4.29-25.94"/>
   <path d="m3422.5 2270.1c0.4598-0.21 0.96-0.66 1.48-1.37l80.15-107.25c-0.1702 1.74-0.2602 3.44-0.2602 5.07v103.84h7.87v-123.79h-4.29c-1.34 0-2.42 0.58-3.23 1.75l-80.5 107.44c0.18-1.74 0.2602-3.41 0.2602-4.99v-104.2h-7.7802v123.79h4.38c0.81 0 1.45-0.09 1.92-0.29"/>
   <path d="m3621.8 2115.8h6.5508v163.52h-6.5508z"/>
   <path d="m3798.4 2255.4c-0.5303-1-1.29-1.5-2.28-1.5-0.76 0-1.74 0.55-2.93 1.62-1.21 1.09-2.84 2.27-4.88 3.59-2.05 1.32-4.61 2.52-7.68 3.63-3.07 1.1-6.86 1.66-11.37 1.66-4.5 0-8.47-0.63-11.89-1.93-3.42-1.27-6.29-3.02-8.6-5.23-2.31-2.22-4.07-4.79-5.27-7.7-1.2-2.93-1.8-6-1.8-9.2 0-4.19 0.89-7.66 2.68-10.41 1.77-2.73 4.13-5.07 7.05-7 2.92-1.91 6.24-3.55 9.94-4.85 3.71-1.31 7.52-2.61 11.43-3.9 3.92-1.28 7.73-2.69 11.44-4.23 3.71-1.55 7.02-3.5 9.94-5.82 2.92-2.34 5.27-5.21 7.05-8.62 1.79-3.42 2.68-7.65 2.68-12.74 0-5.19-0.89-10.07-2.67-14.66-1.78-4.57-4.36-8.55-7.74-11.93-3.38-3.39-7.52-6.05-12.42-8-4.91-1.96-10.5-2.94-16.8-2.94-8.17 0-15.2 1.44-21.09 4.32-5.89 2.91-11.05 6.86-15.48 11.87l2.45 3.84c0.69 0.88 1.51 1.31 2.44 1.31 0.5303 0 1.2-0.34 2.02-1.04 0.81-0.71 1.81-1.57 2.98-2.59 1.16-1.02 2.57-2.12 4.2-3.32 1.64-1.2 3.53-2.3 5.7-3.32 2.16-1.02 4.64-1.88 7.44-2.59 2.81-0.7 5.99-1.04 9.55-1.04 4.91 0 9.29 0.75 13.15 2.22 3.86 1.5 7.11 3.53 9.76 6.09 2.66 2.57 4.69 5.62 6.1 9.14 1.39 3.54 2.1 7.3 2.1 11.34 0 4.36-0.89 7.96-2.68 10.8-1.78 2.82-4.13 5.18-7.05 7.09-2.92 1.88-6.23 3.47-9.94 4.77-3.71 1.27-7.52 2.52-11.44 3.75-3.91 1.23-7.72 2.59-11.43 4.11-3.71 1.53-7.02 3.46-9.94 5.82-2.92 2.37-5.28 5.3-7.05 8.84-1.79 3.53-2.68 7.94-2.68 13.25 0 4.14 0.79 8.14 2.36 12 1.59 3.84 3.89 7.25 6.93 10.18 3.03 2.94 6.78 5.32 11.26 7.1 4.46 1.77 9.56 2.66 15.29 2.66 6.42 0 12.19-1.03 17.3-3.07 5.11-2.03 9.76-5.16 13.97-9.35"/>
   <path d="m3859 2203.6h23.03c5.47 0 10.37 0.77 14.68 2.29 4.32 1.51 7.98 3.61 10.98 6.29 3.02 2.67 5.31 5.85 6.93 9.5 1.59 3.64 2.39 7.62 2.39 11.94 0 9.5-2.93 16.82-8.78 21.96-5.86 5.13-14.61 7.7-26.2 7.7h-23.03zm0-7.17v-49.87h-8.93v123.79h31.96c14.52 0 25.46-3.17 32.84-9.52 7.37-6.36 11.07-15.43 11.07-27.21 0-5.43-1-10.43-3.02-14.96-2.02-4.56-4.92-8.48-8.71-11.77s-8.39-5.86-13.82-7.7c-5.41-1.84-11.56-2.76-18.36-2.76"/>
   <path d="m3968.8 2191.6h55.47l-25.28 62.56c-0.4103 0.99-0.81 2.11-1.23 3.37-0.4103 1.25-0.82 2.58-1.23 3.98-0.3998-1.4-0.81-2.73-1.22-3.98-0.4102-1.26-0.82-2.41-1.22-3.46zm82.86-44.97h-6.91c-0.82 0-1.49 0.22-2.01 0.65-0.5302 0.4401-0.94 1.01-1.23 1.71l-14.61 35.96h-60.81l-14.53-35.96c-0.2303-0.6399-0.63-1.19-1.22-1.66-0.5797-0.47-1.28-0.6999-2.1-0.6999h-6.82l50.66 123.8h8.92"/>
   <path d="m2188.2 2415.1c14.26 0 26.69 1.29 37.27 3.88 10.59 2.59 20.65 6.15 30.22 10.7v61.85h-42.56c-4.08 0-7.29 1.14-9.65 3.41-2.35 2.27-3.52 5.06-3.52 8.35v35.75h113.11v-137.58c-8.62-6.27-17.6-11.72-26.93-16.35-9.32-4.62-19.28-8.42-29.86-11.4s-21.91-5.21-33.98-6.7c-12.08-1.49-25.09-2.24-39.04-2.24-24.77 0-47.58 4.31-68.43 12.94-20.86 8.62-38.89 20.61-54.09 35.98-15.21 15.37-27.09 33.7-35.63 55.03-8.55 21.32-12.82 44.6-12.82 69.85 0 25.55 4.15 48.99 12.47 70.31 8.3 21.32 20.11 39.66 35.39 55.03 15.29 15.36 33.82 27.28 55.62 35.75 21.79 8.46 46.24 12.7 73.37 12.7 27.75 0 51.77-4.12 72.08-12.35 20.3-8.24 37.51-18.93 51.62-32.1l-18.35-28.69c-3.6-5.8-8.38-8.7-14.34-8.7-3.76 0-7.6 1.25-11.53 3.76-5.01 2.97-10.15 5.96-15.4 8.94-5.25 2.97-11.05 5.56-17.4 7.75-6.35 2.2-13.48 4-21.4 5.41-7.92 1.42-17.05 2.12-27.4 2.12-16.77 0-31.95-2.82-45.5-8.46-13.56-5.65-25.13-13.72-34.69-24.23-9.56-10.5-16.93-23.13-22.11-37.86-5.17-14.74-7.76-31.2-7.76-49.38 0-19.61 2.74-37.04 8.23-52.33s13.18-28.19 23.05-38.68c9.88-10.51 21.63-18.55 35.28-24.11 13.64-5.57 28.53-8.35 44.68-8.35"/>
   <path d="m2531.5 2546.8h39.5c11.91 0 22.3 1.48 31.16 4.47 8.85 2.98 16.14 7.09 21.87 12.35 5.72 5.25 9.99 11.47 12.82 18.68 2.82 7.22 4.23 15.13 4.23 23.75 0 17.25-5.69 30.5-17.05 39.75-11.37 9.25-28.73 13.88-52.09 13.88h-40.44zm0-45.39v-132.88h-63.27v340.06h103.71c23.2 0 43.07-2.39 59.61-7.18 16.54-4.77 30.11-11.48 40.7-20.09 10.57-8.64 18.33-18.93 23.27-30.93s7.41-25.21 7.41-39.64c0-11.43-1.68-22.25-5.06-32.45-3.37-10.18-8.23-19.43-14.58-27.75-6.35-8.3-14.19-15.59-23.51-21.87-9.33-6.27-19.96-11.27-31.87-15.04 7.99-4.55 14.89-11.05 20.69-19.52l85.15-125.59h-56.93c-5.49 0-10.15 1.11-13.99 3.29-3.83 2.21-7.08 5.34-9.76 9.41l-71.49 108.89c-2.67 4.08-5.61 6.97-8.82 8.7s-7.96 2.59-14.22 2.59"/>
   <path d="m3082.8 2708.6v-50.33h-150.74v-94.3h118.76v-48.68h-118.76v-96.18h150.74v-50.56h-214.47v340.05"/>
   <path d="m3382.8 2500.7v-132.16h-63.26v132.16l-123.93 207.89h55.73c5.49 0 9.84-1.33 13.05-4 3.21-2.66 5.92-6.03 8.12-10.11l62.32-113.58c3.6-6.75 6.73-13.14 9.41-19.17 2.66-6.04 5.09-11.96 7.29-17.76 2.03 5.96 4.35 11.95 6.93 17.99 2.59 6.03 5.68 12.35 9.29 18.94l61.85 113.58c1.73 3.45 4.31 6.66 7.76 9.64s7.84 4.47 13.17 4.47h55.97"/>
   <path d="m4260.9 2448.7c3.45 0 6.43-1.33 8.94-3.99l24.93-27.05c-13.8-17.09-30.77-30.18-50.92-39.27-20.15-9.1-44.33-13.65-72.55-13.65-25.24 0-47.93 4.32-68.08 12.94s-37.35 20.61-51.62 35.98c-14.26 15.37-25.2 33.71-32.8 55.03-7.61 21.32-11.41 44.6-11.41 69.85 0 25.55 4.23 48.95 12.7 70.19s20.38 39.55 35.75 54.92c15.36 15.36 33.74 27.31 55.14 35.86 21.4 8.54 45.04 12.82 70.91 12.82 25.24 0 47.3-4.04 66.19-12.12 18.89-8.07 35.08-18.77 48.57-32.1l-21.17-29.39c-1.25-1.89-2.86-3.53-4.82-4.94s-4.67-2.12-8.11-2.12c-3.61 0-7.29 1.41-11.05 4.24-3.77 2.82-8.55 5.88-14.35 9.17s-13.13 6.35-21.99 9.17-20.1 4.23-33.75 4.23c-15.99 0-30.69-2.78-44.09-8.34-13.4-5.57-24.93-13.53-34.57-23.88-9.64-10.34-17.17-22.93-22.58-37.74-5.4-14.81-8.11-31.48-8.11-49.97 0-19.13 2.71-36.14 8.11-51.04 5.41-14.89 12.74-27.43 21.99-37.62s20.15-17.99 32.69-23.4 26.03-8.12 40.45-8.12c8.62 0 16.42 0.48 23.4 1.41 6.98 0.95 13.41 2.44 19.28 4.48 5.88 2.03 11.45 4.66 16.7 7.87 5.25 3.22 10.46 7.18 15.64 11.88 1.57 1.41 3.21 2.55 4.94 3.41 1.72 0.86 3.6 1.29 5.64 1.29"/>
   <path d="m4697.8 2538.6c0 18.65-2.47 35.39-7.41 50.21-4.93 14.81-12.03 27.39-21.28 37.74s-20.5 18.26-33.75 23.75c-13.24 5.49-28.18 8.23-44.8 8.23s-31.59-2.74-44.91-8.23c-13.33-5.49-24.66-13.4-33.98-23.75-9.33-10.35-16.51-22.93-21.52-37.74-5.02-14.82-7.53-31.56-7.53-50.21 0-18.66 2.51-35.4 7.53-50.21 5.01-14.81 12.19-27.36 21.52-37.63 9.32-10.27 20.65-18.15 33.98-23.63 13.32-5.49 28.29-8.23 44.91-8.23s31.56 2.74 44.8 8.23c13.25 5.48 24.5 13.36 33.75 23.63s16.35 22.82 21.28 37.63c4.94 14.81 7.41 31.55 7.41 50.21m64.91 0c0-24.93-4.16-48.02-12.46-69.26-8.32-21.25-19.99-39.63-35.05-55.14-15.05-15.53-33.16-27.64-54.32-36.34-21.17-8.7-44.6-13.05-70.32-13.05-25.71 0-49.19 4.35-70.43 13.05-21.25 8.7-39.43 20.81-54.56 36.34-15.13 15.51-26.85 33.89-35.15 55.14-8.32 21.24-12.47 44.33-12.47 69.26s4.15 48.01 12.47 69.25c8.3 21.25 20.02 39.63 35.15 55.15s33.31 27.64 54.56 36.34c21.24 8.7 44.72 13.05 70.43 13.05 25.72 0 49.15-4.4 70.32-13.17 21.16-8.78 39.27-20.89 54.32-36.34 15.06-15.44 26.73-33.78 35.05-55.03 8.3-21.24 12.46-44.32 12.46-69.25"/>
   <path d="m4877.3 2400.5c0 4.86 0.9 9.48 2.71 13.88 1.79 4.38 4.3 8.15 7.52 11.29 3.21 3.13 7.02 5.64 11.41 7.52 4.38 1.88 9.09 2.82 14.11 2.82 4.85 0 9.48-0.94 13.87-2.82s8.15-4.39 11.29-7.52c3.13-3.14 5.64-6.91 7.52-11.29 1.88-4.4 2.82-9.02 2.82-13.88 0-5.02-0.94-9.68-2.82-13.99-1.88-4.32-4.39-8.04-7.52-11.17-3.14-3.14-6.9-5.61-11.29-7.41s-9.02-2.7-13.87-2.7c-5.02 0-9.73 0.9-14.11 2.7-4.39 1.8-8.2 4.27-11.41 7.41-3.22 3.13-5.73 6.85-7.52 11.17-1.81 4.31-2.71 8.97-2.71 13.99"/>
   <path d="m3700.4 2526.8c0-4.52 0.6802-8.62 2.05-12.29 1.36-3.67 3.32-6.83 5.86-9.46 2.54-2.64 5.58-4.69 9.11-6.15s7.46-2.18 11.79-2.18c6.31 0 12.17 0.82 17.59 2.47 5.42 1.64 10.47 3.97 15.19 6.99l-47.32 50.14c-5.18-4.24-8.85-8.85-11.02-13.84s-3.25-10.22-3.25-15.68m42.66 146.48c9.13 0 17.18-1.34 24.15-4.03 6.97-2.68 12.85-6.21 17.66-10.59 4.8-4.38 8.57-9.44 11.3-15.19 2.73-5.74 4.43-11.63 5.08-17.65l-28.25-5.65c-0.4703-0.1-0.87-0.17-1.2-0.21-0.33-0.05-0.6803-0.07-1.06-0.07-3.95 0-6.87 2.07-8.75 6.21-2.17 4.89-4.69 8.62-7.56 11.16s-6.67 3.81-11.37 3.81c-3.3 0-6.17-0.61-8.62-1.83-2.45-1.23-4.5-2.83-6.14-4.8-1.65-1.98-2.9-4.29-3.74-6.93-0.85-2.63-1.28-5.36-1.28-8.19 0-2.45 0.2197-4.81 0.6397-7.06 0.42-2.26 1.1301-4.55 2.1101-6.85 1-2.31 2.3599-4.69 4.0999-7.14s3.9801-5.08 6.7101-7.91l50.85-53.67c2.55 5.65 4.5699 11.53 6.08 17.65 1.5 6.13 2.59 12.48 3.25 19.07 0.18 2.64 1.0599 4.71 2.61 6.22 1.55 1.51 3.6 2.26 6.15 2.26h27.68c0-13.75-1.8401-26.58-5.51-38.49-3.67-11.92-8.9001-22.82-15.68-32.7l43.22-45.49h-43.22c-2.1699 0-4.0999 0.12-5.79 0.36-1.6999 0.23-3.27 0.63-4.7299 1.2-1.46 0.56-2.85 1.36-4.17 2.4-1.32 1.03-2.73 2.35-4.2401 3.95l-8.8999 9.32c-8.94-6.21-18.71-11.01-29.31-14.4-10.59-3.39-21.87-5.08-33.83-5.08-8.19 0-16.22 1.41-24.08 4.23-7.86 2.83-14.85 6.85-20.98 12.08-6.12 5.23-11.06 11.56-14.83 19-3.7601 7.44-5.6501 15.77-5.6501 25 0 6.22 0.9701 12.1 2.9001 17.66 1.9299 5.55 4.64 10.71 8.12 15.46 3.48 4.76 7.65 9.09 12.5 13 4.8501 3.9 10.15 7.32 15.89 10.24-4.42 6.87-7.63 13.61-9.6 20.2-1.98 6.59-2.97 13-2.97 19.21 0 7.34 1.34 14.29 4.0299 20.83 2.6801 6.55 6.5901 12.29 11.72 17.24 5.13 4.94 11.44 8.87 18.93 11.79 7.49 2.92 16.08 4.38 25.78 4.38"/>
   <path d="m3655.8 2407.7h199.73v30.219h-199.73z"/>
  </g>
 </g>
</svg>
